<?xml version="1.0" standalone="no"?>
<!DOCTYPE svg PUBLIC "-//W3C//DTD SVG 20010904//EN"
 "http://www.w3.org/TR/2001/REC-SVG-20010904/DTD/svg10.dtd">
<svg version="1.0" xmlns="http://www.w3.org/2000/svg"
 width="115.000000pt" height="116.000000pt" viewBox="0 0 115.000000 116.000000"
 preserveAspectRatio="xMidYMid meet">

<g transform="translate(0.000000,116.000000) scale(0.100000,-0.100000)"
fill="#000000" stroke="none">
<path d="M626 1049 c-21 -55 -36 -103 -33 -105 7 -8 211 -84 223 -84 11 0 91
197 83 204 -4 3 -228 86 -233 86 -2 0 -20 -45 -40 -101z"/>
<path d="M417 498 c-92 -210 -165 -383 -163 -386 13 -13 270 -102 276 -95 10
11 254 792 249 796 -8 7 -175 67 -185 67 -5 0 -85 -172 -177 -382z"/>
</g>
</svg>
